<svg width="548" height="26" viewBox="0 0 548 26" fill="none" xmlns="http://www.w3.org/2000/svg">
<g opacity="0.5">
<path d="M44.1683 25.4066L17.4081 0H7.62939e-06L26.7602 25.4066H44.1683Z" fill="#CE1934"/>
<path d="M66.0571 25.4066L39.2969 0H21.8888L48.649 25.4066H66.0571Z" fill="#CE1934"/>
<path d="M351.001 25.4066L324.241 0H306.833L333.593 25.4066H351.001Z" fill="#CE1934"/>
<path d="M87.9458 25.4066L61.1856 0H43.7775L70.5377 25.4066H87.9458Z" fill="#CE1934"/>
<path d="M372.89 25.4066L346.13 0H328.722L355.482 25.4066H372.89Z" fill="#CE1934"/>
<path d="M109.834 25.4066L83.0743 0H65.6661L92.4263 25.4066H109.834Z" fill="#CE1934"/>
<path d="M394.779 25.4066L368.019 0H350.61L377.371 25.4066H394.779Z" fill="#CE1934"/>
<path d="M131.723 25.4066L104.963 0H87.5549L114.315 25.4066H131.723Z" fill="#CE1934"/>
<path d="M416.667 25.4066L389.907 0H372.499L399.259 25.4066H416.667Z" fill="#CE1934"/>
<path d="M153.612 25.4066L126.852 0H109.444L136.204 25.4066H153.612Z" fill="#CE1934"/>
<path d="M438.556 25.4066L411.796 0H394.388L421.148 25.4066H438.556Z" fill="#CE1934"/>
<path d="M175.501 25.4066L148.741 0H131.332L158.093 25.4066H175.501Z" fill="#CE1934"/>
<path d="M460.445 25.4066L433.685 0H416.277L443.037 25.4066H460.445Z" fill="#CE1934"/>
<path d="M197.389 25.4066L170.629 0H153.221L179.981 25.4066H197.389Z" fill="#CE1934"/>
<path d="M482.334 25.4066L455.574 0H438.165L464.926 25.4066H482.334Z" fill="#CE1934"/>
<path d="M219.278 25.4066L192.518 0H175.11L201.87 25.4066H219.278Z" fill="#CE1934"/>
<path d="M504.223 25.4066L477.462 0H460.054L486.815 25.4066H504.223Z" fill="#CE1934"/>
<path d="M241.167 25.4066L214.407 0H196.999L223.759 25.4066H241.167Z" fill="#CE1934"/>
<path d="M526.111 25.4066L499.351 0H481.943L508.703 25.4066H526.111Z" fill="#CE1934"/>
<path d="M263.056 25.4066L236.295 0H218.887L245.648 25.4066H263.056Z" fill="#CE1934"/>
<path d="M307.224 25.4066L280.464 0H263.056L289.816 25.4066H307.224Z" fill="#CE1934"/>
<path d="M329.113 25.4066L302.353 0H284.944L311.705 25.4066H329.113Z" fill="#CE1934"/>
<path d="M548 25.4066L521.24 0H503.832L530.592 25.4066H548Z" fill="#CE1934"/>
<path d="M284.944 25.4066L258.184 0H240.776L267.536 25.4066H284.944Z" fill="#CE1934"/>
</g>
<mask id="mask0_509_7421" style="mask-type:luminance" maskUnits="userSpaceOnUse" x="0" y="0" width="287" height="26">
<path d="M0 0H286.98V25.76H0V0Z" fill="white"/>
</mask>
<g mask="url(#mask0_509_7421)">
<mask id="mask1_509_7421" style="mask-type:luminance" maskUnits="userSpaceOnUse" x="0" y="0" width="287" height="26">
<path d="M259.118 0H0L27.8146 25.76H286.932L259.118 0Z" fill="white"/>
</mask>
<g mask="url(#mask1_509_7421)">
<path d="M0 0H286.98V25.76H0V0Z" fill="#CE1934"/>
</g>
</g>
</svg>
