<svg width="1440" height="57" viewBox="0 0 1440 57" fill="none" xmlns="http://www.w3.org/2000/svg">
<path fill-rule="evenodd" clip-rule="evenodd" d="M1413.14 34.7715L1410.66 29.9674L1414.81 21.9626H1406.51L1410.66 29.9674L1408.16 34.7715L1346.54 34.7715L1343 41.6305L1336.02 55.1059L1331.37 46.1247L1307.81 46.3235H1304.03L1294.48 27.8847L1269.12 27.8847L1263.66 38.4283L1042.49 38.3727L1038.14 29.9733L1031.62 42.5776L1029.44 38.3727L904.88 38.4283L895.256 56.9942L877.118 21.9626L877.112 21.9786L877.104 21.9626L870.277 35.1486H867.379L865.795 32.0896L868.311 27.2475H863.292L865.795 32.0896L864.241 35.0872L805.467 35.1354V35.1486L797.171 35.1413L788.875 35.1486V35.1354L730.1 35.0872L728.545 32.0896L731.05 27.2475H726.03L728.545 32.0896L726.962 35.1486H724.065L717.238 21.9626L717.229 21.9786L717.224 21.9626L699.085 56.9942L689.461 38.4283L613.923 38.3727L611.743 42.5776L605.22 29.9733L600.869 38.3727L495.842 38.4283L490.383 27.8847L465.019 27.8847L455.472 46.3235H451.695L428.129 46.1247L423.479 55.1059L416.506 41.6305L412.966 34.7715L351.341 34.7715L348.848 29.9674L352.993 21.9626H344.694L348.848 29.9674L346.361 34.7715L151.331 34.7715L144.415 21.9626L144.401 21.9947L144.384 21.9626L132.341 46.3235H122.597L116.825 35.1486L-2.99927 35.1486L-2.99927 -0.0175171L1445 -0.0175171V35.1486L1413.14 34.7715ZM169.421 21.9626H168.112V29.5304H169.421V21.9626ZM171.399 21.9626H170.095V29.5304H171.399V21.9626ZM180.541 21.9626H179.237V29.5304H180.541V21.9626ZM196.227 21.9626H192.309V29.5304H196.227V21.9626ZM437.942 36.5224H436.635V39.0436H437.942V36.5224ZM442.951 31.4757H441.643V39.0436H442.951V31.4757ZM453.083 31.4757H451.775V33.9954H453.083V31.4757ZM453.083 36.5224H451.775V39.0436H453.083V36.5224ZM1307.73 31.4757H1306.42V33.9954H1307.73V31.4757ZM1307.73 36.5224H1306.42V39.0436H1307.73V36.5224ZM1317.86 31.4757L1316.55 31.4757V39.0436H1317.86V31.4757ZM1322.87 36.5224H1321.56V39.0436H1322.87V36.5224ZM1413.16 34.8109H1408.14L1408.16 34.7715H1413.14L1413.16 34.8109ZM1028.53 48.5392L1031.62 42.5776L1034.71 48.5392H1028.53ZM351.361 34.8109H346.34L346.361 34.7715H351.341L351.361 34.8109Z" fill="black"/>
</svg>
