<svg width="1440" height="56" viewBox="0 0 1440 56" fill="none" xmlns="http://www.w3.org/2000/svg">
<g clip-path="url(#clip0_394_14464)">
<path fill-rule="evenodd" clip-rule="evenodd" d="M1438.46 33.6914L1435.92 29.0365L1440.16 21.2803H1431.69L1435.92 29.0365L1433.37 33.6914L1370.43 33.6914L1366.81 40.3374L1359.69 53.3942L1354.94 44.692L1330.87 44.8846H1327.01L1317.26 27.0185L1291.36 27.0185L1285.78 37.2346L1059.88 37.1808L1055.43 29.0422L1048.77 41.255L1046.54 37.1808L919.317 37.2346L909.487 55.2239L890.96 21.2803L890.955 21.2959L890.946 21.2803L883.973 34.0568H881.013L879.395 31.0928L881.965 26.4011H876.838L879.395 31.0928L877.808 33.9973L817.775 34.044V34.0568L809.302 34.0497L800.828 34.0568V34.044L740.795 33.9973L739.207 31.0928L741.765 26.4011H736.638L739.207 31.0928L737.59 34.0568H734.631L727.658 21.2803L727.648 21.2959L727.643 21.2803L709.116 55.2239L699.286 37.2346L622.131 37.1808L619.904 41.255L613.242 29.0422L608.797 37.1808L501.522 37.2346L495.945 27.0185L470.039 27.0185L460.288 44.8846H456.429L432.359 44.692L427.609 53.3942L420.487 40.3374L416.871 33.6914L353.927 33.6914L351.381 29.0365L355.614 21.2803L347.138 21.2803L351.381 29.0365L348.84 33.6914L149.635 33.6914L142.571 21.2803L142.557 21.3115L142.539 21.2803L130.239 44.8846H120.285L114.39 34.0568L-7.99927 34.0568L-7.99927 -0.0170898L1471 -0.0170898V34.0568L1438.46 33.6914ZM168.112 21.2803H166.775V28.6131H168.112V21.2803ZM170.133 21.2803H168.801V28.6131H170.133V21.2803ZM179.471 21.2803H178.138V28.6131H179.471V21.2803ZM195.492 21.2803H191.49V28.6131H195.492V21.2803ZM442.382 35.388H441.047V37.8308H442.382V35.388ZM447.498 30.498H446.162V37.8308H447.498V30.498ZM457.847 30.498H456.512V32.9394H457.847V30.498ZM457.847 35.388H456.512V37.8308H457.847V35.388ZM1330.79 30.498H1329.45V32.9394H1330.79V30.498ZM1330.79 35.388H1329.45V37.8308H1330.79V35.388ZM1341.14 30.498L1339.8 30.498V37.8308H1341.14V30.498ZM1346.25 35.388H1344.92V37.8308H1346.25V35.388ZM1438.48 33.7296H1433.35L1433.37 33.6914H1438.46L1438.48 33.7296ZM1045.62 47.0315L1048.77 41.255L1051.93 47.0315H1045.62ZM353.947 33.7296H348.819L348.84 33.6914H353.927L353.947 33.7296Z" fill="black"/>
</g>
<defs>
<clipPath id="clip0_394_14464">
<rect width="1479" height="55.2297" fill="white" transform="translate(-8)"/>
</clipPath>
</defs>
</svg>
